<mxfile modified="2023-11-30T16:30:10.144Z" host="app.diagrams.net" agent="Mozilla/5.0 (Windows NT 10.0; Win64; x64) AppleWebKit/537.36 (KHTML, like Gecko) Chrome/119.0.0.0 Safari/537.36" etag="VWZ6j47KYcqgfon_64JF" version="22.1.3" type="github">
  <diagram id="Ht1M8jgEwFfnCIfOTk4-" name="Page-1">
    <mxGraphModel dx="1200" dy="692" grid="1" gridSize="11" guides="1" tooltips="1" connect="1" arrows="1" fold="1" page="1" pageScale="1" pageWidth="1169" pageHeight="827" math="0" shadow="0">
      <root>
        <mxCell id="0" />
        <mxCell id="1" parent="0" />
        <mxCell id="UEzPUAAOIrF-is8g5C7q-74" value="AWS Cloud" style="points=[[0,0],[0.25,0],[0.5,0],[0.75,0],[1,0],[1,0.25],[1,0.5],[1,0.75],[1,1],[0.75,1],[0.5,1],[0.25,1],[0,1],[0,0.75],[0,0.5],[0,0.25]];outlineConnect=0;gradientColor=none;html=1;whiteSpace=wrap;fontSize=12;fontStyle=0;shape=mxgraph.aws4.group;grIcon=mxgraph.aws4.group_aws_cloud_alt;strokeColor=#232F3E;fillColor=none;verticalAlign=top;align=left;spacingLeft=30;fontColor=#232F3E;dashed=0;labelBackgroundColor=#ffffff;container=1;pointerEvents=0;collapsible=0;recursiveResize=0;" parent="1" vertex="1">
          <mxGeometry x="44" y="110" width="957" height="650" as="geometry" />
        </mxCell>
        <mxCell id="UEzPUAAOIrF-is8g5C7q-107" value="" style="rounded=0;whiteSpace=wrap;html=1;labelBackgroundColor=none;fillColor=none;dashed=1;container=1;pointerEvents=0;collapsible=0;recursiveResize=0;strokeWidth=2;" parent="UEzPUAAOIrF-is8g5C7q-74" vertex="1">
          <mxGeometry x="33" y="65" width="869" height="556" as="geometry" />
        </mxCell>
        <mxCell id="wpDZTsJx0Alkrm5YS9d_-1" value="&lt;font style=&quot;font-size: 14px;&quot;&gt;&lt;b&gt;Databricks Cluster&amp;nbsp;&lt;/b&gt;&lt;/font&gt;" style="image;aspect=fixed;html=1;points=[];align=center;fontSize=12;image=img/lib/azure2/analytics/Azure_Databricks.svg;" vertex="1" parent="UEzPUAAOIrF-is8g5C7q-107">
          <mxGeometry x="41" y="89" width="83.12" height="90" as="geometry" />
        </mxCell>
        <mxCell id="wpDZTsJx0Alkrm5YS9d_-50" value="" style="edgeStyle=orthogonalEdgeStyle;rounded=0;orthogonalLoop=1;jettySize=auto;html=1;strokeWidth=2;" edge="1" parent="UEzPUAAOIrF-is8g5C7q-107" source="UEzPUAAOIrF-is8g5C7q-85" target="wpDZTsJx0Alkrm5YS9d_-32">
          <mxGeometry relative="1" as="geometry" />
        </mxCell>
        <mxCell id="UEzPUAAOIrF-is8g5C7q-85" value="&lt;font style=&quot;font-size: 14px;&quot;&gt;&lt;b&gt;dev-MandatoryTags-autoapply&lt;/b&gt;&lt;/font&gt;" style="outlineConnect=0;fontColor=#232F3E;gradientColor=#F78E04;gradientDirection=north;fillColor=#D05C17;strokeColor=#ffffff;dashed=0;verticalLabelPosition=bottom;verticalAlign=top;align=center;html=1;fontSize=12;fontStyle=0;aspect=fixed;shape=mxgraph.aws4.resourceIcon;resIcon=mxgraph.aws4.lambda;labelBackgroundColor=#ffffff;spacingTop=6;" parent="UEzPUAAOIrF-is8g5C7q-107" vertex="1">
          <mxGeometry x="290" y="170" width="78" height="78" as="geometry" />
        </mxCell>
        <mxCell id="wpDZTsJx0Alkrm5YS9d_-6" value="" style="endArrow=classic;html=1;rounded=0;strokeWidth=2;" edge="1" parent="UEzPUAAOIrF-is8g5C7q-107" target="UEzPUAAOIrF-is8g5C7q-85">
          <mxGeometry width="50" height="50" relative="1" as="geometry">
            <mxPoint x="209" y="209" as="sourcePoint" />
            <mxPoint x="129" y="258" as="targetPoint" />
          </mxGeometry>
        </mxCell>
        <mxCell id="wpDZTsJx0Alkrm5YS9d_-17" value="&lt;b&gt;&lt;font style=&quot;font-size: 15px;&quot;&gt;Service Now&lt;/font&gt;&lt;/b&gt;" style="rounded=1;whiteSpace=wrap;html=1;" vertex="1" parent="UEzPUAAOIrF-is8g5C7q-107">
          <mxGeometry x="22.56" y="279" width="120" height="60" as="geometry" />
        </mxCell>
        <mxCell id="wpDZTsJx0Alkrm5YS9d_-26" value="&lt;b&gt;Send notification to Admin team&lt;/b&gt;" style="rounded=0;whiteSpace=wrap;html=1;" vertex="1" parent="UEzPUAAOIrF-is8g5C7q-107">
          <mxGeometry x="693" y="179" width="132" height="60" as="geometry" />
        </mxCell>
        <mxCell id="wpDZTsJx0Alkrm5YS9d_-57" value="" style="edgeStyle=orthogonalEdgeStyle;rounded=0;orthogonalLoop=1;jettySize=auto;html=1;strokeWidth=2;" edge="1" parent="UEzPUAAOIrF-is8g5C7q-107" source="wpDZTsJx0Alkrm5YS9d_-32" target="wpDZTsJx0Alkrm5YS9d_-55">
          <mxGeometry relative="1" as="geometry" />
        </mxCell>
        <mxCell id="wpDZTsJx0Alkrm5YS9d_-32" value="&lt;font style=&quot;font-size: 15px;&quot;&gt;&lt;b&gt;Apply Tags&lt;/b&gt;&lt;/font&gt;" style="verticalLabelPosition=bottom;sketch=0;aspect=fixed;html=1;verticalAlign=top;strokeColor=none;align=center;outlineConnect=0;shape=mxgraph.citrix.process;" vertex="1" parent="UEzPUAAOIrF-is8g5C7q-107">
          <mxGeometry x="451" y="168.5" width="67.94" height="81" as="geometry" />
        </mxCell>
        <mxCell id="wpDZTsJx0Alkrm5YS9d_-44" value="" style="endArrow=none;html=1;rounded=0;fontSize=11;strokeWidth=2;" edge="1" parent="UEzPUAAOIrF-is8g5C7q-107" source="wpDZTsJx0Alkrm5YS9d_-1">
          <mxGeometry width="50" height="50" relative="1" as="geometry">
            <mxPoint x="170" y="182" as="sourcePoint" />
            <mxPoint x="209" y="134" as="targetPoint" />
          </mxGeometry>
        </mxCell>
        <mxCell id="wpDZTsJx0Alkrm5YS9d_-48" value="" style="endArrow=none;html=1;rounded=0;strokeWidth=2;" edge="1" parent="UEzPUAAOIrF-is8g5C7q-107">
          <mxGeometry width="50" height="50" relative="1" as="geometry">
            <mxPoint x="209" y="309" as="sourcePoint" />
            <mxPoint x="209" y="133" as="targetPoint" />
          </mxGeometry>
        </mxCell>
        <mxCell id="wpDZTsJx0Alkrm5YS9d_-49" value="" style="endArrow=classic;html=1;rounded=0;strokeWidth=2;exitX=0.5;exitY=0;exitDx=0;exitDy=0;" edge="1" parent="UEzPUAAOIrF-is8g5C7q-107" target="UEzPUAAOIrF-is8g5C7q-85">
          <mxGeometry width="50" height="50" relative="1" as="geometry">
            <mxPoint x="328.9999999999998" y="353" as="sourcePoint" />
            <mxPoint x="301" y="220" as="targetPoint" />
          </mxGeometry>
        </mxCell>
        <mxCell id="wpDZTsJx0Alkrm5YS9d_-47" value="" style="endArrow=none;html=1;rounded=0;entryX=1;entryY=0.5;entryDx=0;entryDy=0;strokeWidth=2;" edge="1" parent="UEzPUAAOIrF-is8g5C7q-107" target="wpDZTsJx0Alkrm5YS9d_-17">
          <mxGeometry width="50" height="50" relative="1" as="geometry">
            <mxPoint x="209" y="309" as="sourcePoint" />
            <mxPoint x="204" y="155" as="targetPoint" />
          </mxGeometry>
        </mxCell>
        <mxCell id="wpDZTsJx0Alkrm5YS9d_-53" value="&lt;b&gt;&lt;font style=&quot;font-size: 15px;&quot;&gt;Mandatory Tags Excel Report&lt;/font&gt;&lt;/b&gt;" style="shape=image;html=1;verticalAlign=top;verticalLabelPosition=bottom;labelBackgroundColor=#ffffff;imageAspect=0;aspect=fixed;image=https://cdn0.iconfinder.com/data/icons/logos-microsoft-office-365/128/Microsoft_Office-02-128.png" vertex="1" parent="UEzPUAAOIrF-is8g5C7q-107">
          <mxGeometry x="302" y="353" width="54" height="54" as="geometry" />
        </mxCell>
        <mxCell id="wpDZTsJx0Alkrm5YS9d_-54" value="&lt;b&gt;&lt;font style=&quot;font-size: 20px;&quot;&gt;Automated Tagging Mechanism Architecture&lt;/font&gt;&lt;/b&gt;" style="text;html=1;align=center;verticalAlign=middle;resizable=0;points=[];autosize=1;strokeColor=none;fillColor=none;" vertex="1" parent="UEzPUAAOIrF-is8g5C7q-107">
          <mxGeometry x="259.97" y="42" width="451" height="33" as="geometry" />
        </mxCell>
        <mxCell id="wpDZTsJx0Alkrm5YS9d_-58" value="" style="edgeStyle=orthogonalEdgeStyle;rounded=0;orthogonalLoop=1;jettySize=auto;html=1;strokeWidth=2;" edge="1" parent="UEzPUAAOIrF-is8g5C7q-107" source="wpDZTsJx0Alkrm5YS9d_-55" target="wpDZTsJx0Alkrm5YS9d_-26">
          <mxGeometry relative="1" as="geometry" />
        </mxCell>
        <mxCell id="wpDZTsJx0Alkrm5YS9d_-55" value="&lt;b&gt;&lt;font style=&quot;font-size: 14px;&quot;&gt;Save Tags &lt;br&gt;report to S3&lt;/font&gt;&lt;/b&gt;" style="sketch=0;points=[[0,0,0],[0.25,0,0],[0.5,0,0],[0.75,0,0],[1,0,0],[0,1,0],[0.25,1,0],[0.5,1,0],[0.75,1,0],[1,1,0],[0,0.25,0],[0,0.5,0],[0,0.75,0],[1,0.25,0],[1,0.5,0],[1,0.75,0]];outlineConnect=0;fontColor=#232F3E;fillColor=#7AA116;strokeColor=#ffffff;dashed=0;verticalLabelPosition=bottom;verticalAlign=top;align=center;html=1;fontSize=12;fontStyle=0;aspect=fixed;shape=mxgraph.aws4.resourceIcon;resIcon=mxgraph.aws4.s3;" vertex="1" parent="UEzPUAAOIrF-is8g5C7q-107">
          <mxGeometry x="572" y="170" width="78" height="78" as="geometry" />
        </mxCell>
      </root>
    </mxGraphModel>
  </diagram>
</mxfile>
